<?xml version="1.0" standalone="no"?>
<!DOCTYPE svg PUBLIC "-//W3C//DTD SVG 20010904//EN"
 "http://www.w3.org/TR/2001/REC-SVG-20010904/DTD/svg10.dtd">
<svg version="1.0" xmlns="http://www.w3.org/2000/svg"
 width="180.000000pt" height="180.000000pt" viewBox="0 0 180.000000 180.000000"
 preserveAspectRatio="xMidYMid meet">
<metadata>
Created by potrace 1.11, written by Peter Selinger 2001-2013
</metadata>
<g transform="translate(0.000000,180.000000) scale(0.100000,-0.100000)"
fill="#000000" stroke="none">
<path d="M1111 1356 c-18 -21 -10 -49 16 -61 12 -5 24 -17 26 -27 6 -23 35
-34 56 -21 23 15 20 56 -5 67 -11 5 -25 19 -30 30 -11 26 -46 32 -63 12z"/>
<path d="M1342 1358 c-28 -28 -1 -75 38 -65 14 4 20 0 20 -13 0 -40 52 -52 74
-17 15 24 -5 52 -38 52 -17 -1 -26 5 -26 15 0 21 -20 40 -40 40 -9 0 -21 -5
-28 -12z"/>
<path d="M1010 1305 c-26 -32 13 -81 48 -59 34 22 22 74 -18 74 -10 0 -23 -7
-30 -15z"/>
<path d="M1510 1305 c-26 -32 13 -81 48 -59 34 22 22 74 -18 74 -10 0 -23 -7
-30 -15z"/>
<path d="M831 1267 c-15 -15 -14 -42 2 -55 6 -5 36 -9 66 -8 61 1 85 21 65 54
-13 20 -115 27 -133 9z"/>
<path d="M572 1188 c-16 -16 -15 -43 3 -58 13 -10 19 -10 33 4 10 9 25 16 32
16 7 0 22 -7 32 -16 15 -14 20 -15 33 -4 37 30 -6 87 -46 62 -15 -10 -24 -11
-32 -3 -14 14 -40 14 -55 -1z"/>
<path d="M991 1096 c-6 -7 -12 -30 -14 -51 -2 -44 21 -67 50 -49 24 15 39 80
23 99 -16 19 -44 19 -59 1z"/>
<path d="M1150 1095 c-26 -32 13 -81 48 -59 34 22 22 74 -18 74 -10 0 -23 -7
-30 -15z"/>
<path d="M350 1075 c-17 -20 -9 -48 18 -60 12 -5 22 -15 22 -22 0 -9 -7 -8
-27 3 -35 18 -57 18 -73 0 -6 -8 -21 -16 -32 -18 -23 -3 -56 -51 -57 -80 -1
-11 -9 -18 -21 -18 -15 0 -26 -13 -40 -46 -24 -54 -23 -49 -6 -67 12 -12 12
-18 -1 -45 -19 -39 -12 -62 17 -55 16 4 19 2 14 -13 -4 -11 -11 -24 -16 -31
-11 -13 0 -80 14 -89 5 -3 13 -17 18 -30 5 -13 16 -24 24 -24 21 0 9 -28 -15
-35 -30 -10 -22 -39 17 -60 26 -14 40 -16 52 -8 25 15 27 50 3 65 -35 22 -25
38 22 38 24 0 48 5 55 12 9 9 17 9 35 -1 13 -7 48 -11 82 -9 l60 3 0 35 0 35
-54 2 c-30 1 -59 7 -65 13 -5 5 -19 10 -31 11 -14 0 -12 3 10 10 17 5 38 6 48
3 22 -7 24 34 2 42 -10 4 -14 20 -12 57 l2 52 -35 0 c-32 0 -35 -3 -38 -32 -4
-38 -19 -44 -24 -10 -2 14 -11 23 -25 25 -33 5 -28 24 5 21 15 -1 34 1 42 4
26 10 131 14 136 5 9 -14 81 -9 94 7 10 12 10 15 -4 15 -9 0 -16 6 -16 14 0 9
7 12 19 9 12 -3 29 3 41 14 16 16 19 25 11 44 -7 16 -10 19 -10 7 -2 -37 -28
-48 -99 -41 -37 3 -68 7 -70 8 -2 2 3 13 10 24 20 32 0 56 -48 56 -38 0 -39
-1 -42 -37 -3 -30 -7 -38 -23 -38 -20 0 -26 24 -9 35 6 3 10 14 10 24 0 10 9
21 21 24 11 3 23 15 26 26 4 17 8 18 24 8 14 -9 24 -9 37 -1 25 16 22 57 -5
69 -13 5 -23 17 -23 25 0 36 -47 53 -70 25z m-143 -297 c-3 -8 -6 -5 -6 6 -1
11 2 17 5 13 3 -3 4 -12 1 -19z m43 -193 c10 -12 10 -21 2 -40 -13 -28 -37
-32 -66 -10 -18 13 -18 16 -2 40 19 28 47 33 66 10z"/>
<path d="M550 1075 c-26 -32 13 -81 48 -59 34 22 22 74 -18 74 -10 0 -23 -7
-30 -15z"/>
<path d="M871 1076 c-7 -8 -11 -25 -9 -38 2 -18 9 -23 32 -23 36 0 56 27 40
53 -14 22 -48 27 -63 8z"/>
<path d="M1312 1068 c-27 -27 -3 -88 34 -88 46 0 73 57 42 88 -15 15 -61 15
-76 0z"/>
<path d="M730 1035 c-26 -32 13 -81 48 -59 34 22 22 74 -18 74 -10 0 -23 -7
-30 -15z"/>
<path d="M612 971 c-8 -5 -12 -21 -10 -37 2 -23 9 -30 29 -32 33 -4 53 20 45
53 -7 26 -37 34 -64 16z"/>
<path d="M696 871 c5 -22 1 -32 -18 -46 -22 -16 -22 -17 -1 -11 12 4 24 2 28
-4 10 -16 91 -12 105 5 7 8 10 25 6 40 -5 21 -12 25 -41 25 -18 0 -37 5 -40
10 -3 6 -15 10 -25 10 -16 0 -18 -5 -14 -29z"/>
<path d="M684 606 c-3 -8 -4 -25 -2 -38 2 -19 9 -23 38 -23 33 0 35 2 35 35 0
32 -3 35 -33 38 -21 2 -34 -2 -38 -12z"/>
<path d="M310 375 c-15 -18 -10 -45 13 -59 34 -22 73 27 47 59 -16 19 -44 19
-60 0z"/>
</g>
</svg>
